<svg xmlns="http://www.w3.org/2000/svg" id="fe70ec9c-b037-4f72-a7a2-07cbc6f0ef4c" width="256" height="256" viewBox="0 0 256 256"><defs><linearGradient id="e2fe4efc-4a1d-4f70-a980-184ccda75abc" x1="-960.606" x2="-1032.511" y1="283.397" y2="70.972" gradientTransform="matrix(1, 0, 0, -1, 1075, 318)" gradientUnits="userSpaceOnUse"><stop offset="0" stop-color="#114a8b"/><stop offset="1" stop-color="#0669bc"/></linearGradient><linearGradient id="a82bab42-1271-4deb-816b-fb816e4142d0" x1="-938.144" x2="-954.778" y1="184.402" y2="178.778" gradientTransform="matrix(1, 0, 0, -1, 1075, 318)" gradientUnits="userSpaceOnUse"><stop offset="0" stop-opacity=".3"/><stop offset=".071" stop-opacity=".2"/><stop offset=".321" stop-opacity=".1"/><stop offset=".623" stop-opacity=".05"/><stop offset="1" stop-opacity="0"/></linearGradient><linearGradient id="a2e5c8d3-be95-49ed-b70a-aecc775398ac" x1="-947.292" x2="-868.363" y1="289.594" y2="79.308" gradientTransform="matrix(1, 0, 0, -1, 1075, 318)" gradientUnits="userSpaceOnUse"><stop offset="0" stop-color="#3ccbf4"/><stop offset="1" stop-color="#2892df"/></linearGradient></defs><g><path fill="url(#e2fe4efc-4a1d-4f70-a980-184ccda75abc)" d="M89.1583,18.266h69.238L86.5228,231.2237a11.0411,11.0411,0,0,1-10.4612,7.51H22.1787a11.0229,11.0229,0,0,1-10.4446-14.5479l66.9633-198.41A11.0406,11.0406,0,0,1,89.1583,18.266Z"/><path fill="#0078d4" d="M189.7708,161.1044H79.9752a5.0829,5.0829,0,0,0-3.4681,8.7988l70.5517,65.8479a11.0915,11.0915,0,0,0,7.5668,2.9829h62.1675Z"/><path fill="url(#a82bab42-1271-4deb-816b-fb816e4142d0)" d="M89.1583,18.266A10.95,10.95,0,0,0,78.675,25.92L11.8168,224.0061A11.0094,11.0094,0,0,0,22.21,238.734H77.4839a11.8143,11.8143,0,0,0,9.0688-7.7138L99.8838,191.73l47.6243,44.4181a11.2671,11.2671,0,0,0,7.0889,2.5863h61.9371l-27.1656-77.63-79.1905.0176,48.47-142.856Z"/><path fill="url(#a2e5c8d3-be95-49ed-b70a-aecc775398ac)" d="M177.592,25.7643a11.0227,11.0227,0,0,0-10.4439-7.4983H89.9841a11.0245,11.0245,0,0,1,10.445,7.4983l66.967,198.4209a11.0245,11.0245,0,0,1-10.445,14.5488h77.164a11.0235,11.0235,0,0,0,10.444-14.5488Z"/></g></svg>